<?xml version="1.0" encoding="iso-8859-1"?>
<!-- Uploaded to: SVG Repo, www.svgrepo.com, Generator: SVG Repo Mixer Tools -->
<svg version="1.1" id="Layer_1" xmlns="http://www.w3.org/2000/svg" xmlns:xlink="http://www.w3.org/1999/xlink" 
	 viewBox="0 0 512 512" xml:space="preserve">
<path style="fill:#507C5C;" d="M438.556,512H19.785c-8.216,0-14.876-6.66-14.876-14.876V256.916c0-8.216,6.66-14.876,14.876-14.876
	s14.876,6.66,14.876,14.876v225.332H423.68v-32.833c0-8.216,6.66-14.876,14.876-14.876c8.216,0,14.876,6.66,14.876,14.876v47.709
	C453.432,505.34,446.772,512,438.556,512z"/>
<g>
	<polygon style="fill:#CFF09E;" points="19.785,177.122 19.785,172.332 175.581,14.876 175.581,177.122 	"/>
	<rect x="196.154" y="219.435" style="fill:#CFF09E;" width="296.061" height="163.65"/>
</g>
<g>
	<path style="fill:#507C5C;" d="M492.215,204.559h-38.783V14.876C453.432,6.66,446.772,0,438.556,0H175.581
		c-0.183,0-0.363,0.021-0.546,0.027c-0.167,0.006-0.332,0.013-0.497,0.025c-0.644,0.046-1.284,0.118-1.912,0.245
		c-0.01,0.001-0.021,0.006-0.033,0.007c-0.622,0.128-1.227,0.306-1.825,0.512c-0.153,0.052-0.305,0.107-0.457,0.165
		c-0.588,0.223-1.166,0.472-1.721,0.766c-0.016,0.009-0.034,0.015-0.051,0.024c-0.57,0.306-1.111,0.662-1.638,1.041
		c-0.134,0.097-0.266,0.195-0.397,0.296c-0.522,0.403-1.029,0.829-1.498,1.302L9.21,161.868c-0.35,0.353-0.678,0.721-0.988,1.104
		c-0.207,0.254-0.388,0.521-0.576,0.784c-0.092,0.131-0.195,0.256-0.283,0.388c-0.214,0.324-0.406,0.66-0.592,0.998
		c-0.046,0.083-0.1,0.162-0.143,0.245c-0.183,0.347-0.342,0.701-0.495,1.056c-0.037,0.086-0.082,0.168-0.118,0.256
		c-0.14,0.341-0.256,0.689-0.369,1.038c-0.036,0.112-0.08,0.219-0.113,0.33c-0.095,0.321-0.17,0.646-0.242,0.971
		c-0.034,0.147-0.076,0.293-0.106,0.442c-0.058,0.3-0.095,0.604-0.134,0.907c-0.024,0.177-0.057,0.351-0.073,0.53
		c-0.028,0.303-0.034,0.607-0.045,0.912c-0.006,0.167-0.024,0.332-0.024,0.498v4.792c0,8.216,6.66,14.876,14.876,14.876h155.796
		c8.216,0,14.876-6.66,14.876-14.876V29.752h233.223v174.807H196.156c-8.216,0-14.876,6.66-14.876,14.876v163.644
		c0,8.216,6.66,14.876,14.876,14.876h296.059c8.216,0,14.876-6.66,14.876-14.876V219.435
		C507.091,211.219,500.431,204.559,492.215,204.559z M50.691,162.246L160.705,51.06v111.186H50.691z M477.339,368.203H211.032
		V234.311h266.308V368.203z"/>
	<path style="fill:#507C5C;" d="M285.292,342.261c0-0.419,0.14-0.979,0.28-1.538l26.008-85.294
		c1.538-4.894,7.831-7.271,14.262-7.271s12.723,2.377,14.262,7.271l26.147,85.294c0.14,0.559,0.28,1.119,0.28,1.538
		c0,5.174-7.969,8.949-13.982,8.949c-3.496,0-6.291-1.119-7.13-4.055l-4.754-17.478H311.16l-4.753,17.478
		c-0.839,2.936-3.636,4.055-7.132,4.055C293.261,351.209,285.292,347.435,285.292,342.261z M336.049,312.897l-10.208-37.472
		l-10.208,37.472H336.049z"/>
	<path style="fill:#507C5C;" d="M374.645,255.569c0-4.615,5.454-6.571,10.907-6.571s10.907,1.956,10.907,6.571v88.928
		c0,4.475-5.454,6.712-10.907,6.712c-5.454,0-10.907-2.237-10.907-6.712L374.645,255.569L374.645,255.569z"/>
</g>
</svg>