<?xml version="1.0" encoding="iso-8859-1"?>
<!-- Uploaded to: SVG Repo, www.svgrepo.com, Generator: SVG Repo Mixer Tools -->
<svg version="1.1" id="Layer_1" xmlns="http://www.w3.org/2000/svg" xmlns:xlink="http://www.w3.org/1999/xlink" 
	 viewBox="0 0 512 512" xml:space="preserve">
<path style="fill:#507C5C;" d="M438.557,512H19.785c-8.216,0-14.876-6.66-14.876-14.876V256.916c0-8.216,6.66-14.876,14.876-14.876
	s14.876,6.66,14.876,14.876v225.332h389.021v-32.833c0-8.216,6.661-14.876,14.876-14.876c8.215,0,14.876,6.66,14.876,14.876v47.709
	C453.433,505.34,446.772,512,438.557,512z"/>
<g>
	<polygon style="fill:#CFF09E;" points="19.785,177.122 19.785,172.332 175.581,14.876 175.581,177.122 	"/>
	<rect x="196.154" y="219.435" style="fill:#CFF09E;" width="296.061" height="163.65"/>
</g>
<g>
	<path style="fill:#507C5C;" d="M492.215,204.559h-38.782V14.876C453.433,6.66,446.772,0,438.557,0H175.581
		c-0.18,0-0.357,0.021-0.537,0.027c-0.173,0.006-0.344,0.013-0.515,0.025c-0.64,0.046-1.273,0.118-1.897,0.244
		c-0.022,0.004-0.043,0.012-0.065,0.016c-0.608,0.126-1.203,0.3-1.79,0.501c-0.158,0.054-0.315,0.11-0.472,0.171
		c-0.58,0.22-1.151,0.466-1.7,0.757c-0.022,0.012-0.046,0.021-0.068,0.033c-0.567,0.305-1.107,0.66-1.632,1.038
		c-0.135,0.098-0.269,0.198-0.402,0.3c-0.521,0.402-1.028,0.827-1.495,1.3L9.21,161.868c-0.35,0.353-0.678,0.721-0.988,1.104
		c-0.207,0.254-0.388,0.521-0.576,0.784c-0.092,0.131-0.195,0.256-0.283,0.388c-0.214,0.324-0.405,0.66-0.592,0.998
		c-0.046,0.083-0.1,0.162-0.143,0.245c-0.183,0.347-0.342,0.701-0.495,1.056c-0.037,0.086-0.082,0.168-0.116,0.256
		c-0.14,0.341-0.256,0.689-0.369,1.038c-0.036,0.112-0.08,0.219-0.113,0.33c-0.095,0.321-0.17,0.646-0.242,0.971
		c-0.033,0.147-0.076,0.293-0.106,0.442c-0.058,0.3-0.095,0.604-0.134,0.907c-0.024,0.177-0.057,0.351-0.074,0.53
		c-0.028,0.303-0.034,0.607-0.045,0.912c-0.006,0.167-0.024,0.332-0.024,0.498v4.792c0,8.216,6.66,14.876,14.876,14.876h155.796
		c8.216,0,14.876-6.66,14.876-14.876V29.752h233.225v174.807H196.156c-8.216,0-14.876,6.66-14.876,14.876v163.644
		c0,8.216,6.66,14.876,14.876,14.876h296.059c8.215,0,14.876-6.66,14.876-14.876V219.435
		C507.091,211.219,500.43,204.559,492.215,204.559z M50.691,162.246L160.705,51.06v111.186H50.691z M477.339,368.203H211.032
		V234.311h266.308V368.203z"/>
	<path style="fill:#507C5C;" d="M251.536,339.854c0-0.393,0.131-0.916,0.262-1.44l24.349-79.853c1.44-4.58,7.331-6.806,13.353-6.806
		s11.913,2.225,13.353,6.806l24.48,79.853c0.131,0.524,0.262,1.047,0.262,1.44c0,4.844-7.462,8.378-13.091,8.378
		c-3.273,0-5.891-1.047-6.676-3.796l-4.449-16.364h-27.622l-4.449,16.364c-0.785,2.749-3.404,3.796-6.676,3.796
		C258.996,348.232,251.536,344.698,251.536,339.854z M299.054,312.363l-9.556-35.082l-9.556,35.082H299.054z"/>
	<path style="fill:#507C5C;" d="M323.927,262.359c-0.131-0.525-0.262-1.047-0.262-1.441c0-4.844,7.462-8.378,13.091-8.378
		c3.273,0,5.891,1.047,6.676,3.796l18.326,67.156l18.195-67.156c0.785-2.749,3.404-3.796,6.676-3.796
		c5.629,0,13.091,3.535,13.091,8.378c0,0.394-0.131,0.916-0.262,1.441l-24.349,79.851c-1.44,4.582-7.331,6.807-13.353,6.807
		c-6.022,0-11.913-2.225-13.353-6.807L323.927,262.359z"/>
	<path style="fill:#507C5C;" d="M407.315,258.693c0-4.318,5.105-6.153,10.209-6.153c5.104,0,10.211,1.833,10.211,6.153v83.256
		c0,4.189-5.107,6.284-10.211,6.284c-5.104,0-10.209-2.093-10.209-6.284V258.693z"/>
</g>
</svg>