<?xml version="1.0" encoding="iso-8859-1"?>
<!-- Uploaded to: SVG Repo, www.svgrepo.com, Generator: SVG Repo Mixer Tools -->
<svg version="1.1" id="Layer_1" xmlns="http://www.w3.org/2000/svg" xmlns:xlink="http://www.w3.org/1999/xlink" 
	 viewBox="0 0 512 512" xml:space="preserve">
<path style="fill:#507C5C;" d="M438.556,512H19.785c-8.216,0-14.876-6.66-14.876-14.876V256.916c0-8.216,6.66-14.876,14.876-14.876
	s14.876,6.66,14.876,14.876v225.332H423.68v-32.833c0-8.216,6.66-14.876,14.876-14.876c8.216,0,14.876,6.66,14.876,14.876v47.709
	C453.432,505.34,446.772,512,438.556,512z"/>
<g>
	<polygon style="fill:#CFF09E;" points="19.785,177.122 19.785,172.332 175.581,14.876 175.581,177.122 	"/>
	<rect x="196.154" y="219.435" style="fill:#CFF09E;" width="296.061" height="163.65"/>
</g>
<g>
	<path style="fill:#507C5C;" d="M492.215,204.559h-38.783V14.876C453.432,6.66,446.772,0,438.556,0H175.581
		c-0.182,0-0.361,0.021-0.541,0.027c-0.17,0.006-0.336,0.013-0.504,0.025c-0.641,0.046-1.279,0.118-1.904,0.244
		c-0.018,0.003-0.034,0.009-0.051,0.013c-0.614,0.126-1.214,0.303-1.804,0.504c-0.158,0.054-0.312,0.11-0.469,0.17
		c-0.582,0.22-1.154,0.467-1.705,0.759c-0.021,0.012-0.043,0.019-0.065,0.031c-0.568,0.305-1.108,0.66-1.633,1.038
		c-0.135,0.098-0.269,0.198-0.402,0.3c-0.522,0.402-1.028,0.827-1.497,1.3L9.21,161.868c-0.35,0.353-0.678,0.721-0.988,1.104
		c-0.207,0.254-0.388,0.521-0.576,0.784c-0.092,0.131-0.195,0.256-0.283,0.388c-0.214,0.326-0.406,0.66-0.592,0.998
		c-0.046,0.083-0.1,0.162-0.143,0.245c-0.183,0.345-0.342,0.701-0.495,1.056c-0.037,0.086-0.082,0.168-0.118,0.256
		c-0.14,0.341-0.256,0.689-0.369,1.038c-0.036,0.112-0.08,0.219-0.113,0.33c-0.095,0.321-0.17,0.646-0.242,0.971
		c-0.034,0.147-0.076,0.293-0.106,0.442c-0.058,0.3-0.095,0.604-0.134,0.907c-0.024,0.177-0.057,0.353-0.073,0.53
		c-0.028,0.303-0.034,0.607-0.045,0.912c-0.006,0.167-0.024,0.332-0.024,0.498v4.792c0,8.216,6.66,14.876,14.876,14.876h155.796
		c8.216,0,14.876-6.66,14.876-14.876V29.752h233.223v174.807H196.156c-8.216,0-14.876,6.66-14.876,14.876v163.644
		c0,8.216,6.66,14.876,14.876,14.876h296.059c8.216,0,14.876-6.66,14.876-14.876V219.435
		C507.091,211.219,500.431,204.559,492.215,204.559z M50.691,162.246L160.705,51.06v111.186H50.691z M477.339,368.203H211.032
		V234.311h266.308V368.203z"/>
	<path style="fill:#507C5C;" d="M277.96,256.89c17.244,0,30.74,7.997,30.74,29.49v32.364c0,21.491-13.495,29.489-30.74,29.489
		h-22.118c-5.123,0-8.497-2.749-8.497-5.872v-79.598c0-3.125,3.374-5.873,8.497-5.873H277.96z M266.839,273.882v57.356h11.121
		c6.998,0,11.246-3.999,11.246-12.494V286.38c0-8.499-4.249-12.496-11.246-12.496h-11.121V273.882z"/>
	<path style="fill:#507C5C;" d="M358.558,323.741c0-15.12-39.612-12.494-39.612-41.736c0-18.744,16.369-25.866,31.989-25.866
		c6.623,0,24.867,1.25,24.867,10.996c0,3.375-2.249,10.247-7.747,10.247c-4.499,0-6.873-4.747-17.119-4.747
		c-8.872,0-12.496,3.624-12.496,7.497c0,12.494,39.612,10.122,39.612,41.611c0,17.994-13.121,27.739-31.239,27.739
		c-16.369,0-30.115-7.997-30.115-16.245c0-4.247,3.749-10.496,8.497-10.496c5.873,0,9.622,9.247,21.243,9.247
		C352.185,331.988,358.558,329.739,358.558,323.741z"/>
	<path style="fill:#507C5C;" d="M425.159,323.741c0-15.12-39.612-12.494-39.612-41.736c0-18.744,16.37-25.866,31.989-25.866
		c6.623,0,24.867,1.25,24.867,10.996c0,3.375-2.249,10.247-7.747,10.247c-4.498,0-6.873-4.747-17.119-4.747
		c-8.872,0-12.496,3.624-12.496,7.497c0,12.494,39.612,10.122,39.612,41.611c0,17.994-13.121,27.739-31.239,27.739
		c-16.369,0-30.115-7.997-30.115-16.245c0-4.247,3.749-10.496,8.497-10.496c5.873,0,9.622,9.247,21.243,9.247
		C418.786,331.988,425.159,329.739,425.159,323.741z"/>
</g>
</svg>