<?xml version="1.0" encoding="iso-8859-1"?>
<!-- Uploaded to: SVG Repo, www.svgrepo.com, Generator: SVG Repo Mixer Tools -->
<svg version="1.1" id="Layer_1" xmlns="http://www.w3.org/2000/svg" xmlns:xlink="http://www.w3.org/1999/xlink" 
	 viewBox="0 0 512 512" xml:space="preserve">
<path style="fill:#507C5C;" d="M438.556,512H19.785c-8.216,0-14.876-6.661-14.876-14.876V256.915c0-8.214,6.66-14.876,14.876-14.876
	s14.876,6.661,14.876,14.876v225.333H423.68v-32.833c0-8.214,6.66-14.876,14.876-14.876c8.216,0,14.876,6.661,14.876,14.876v47.709
	C453.432,505.339,446.772,512,438.556,512z"/>
<g>
	<polygon style="fill:#CFF09E;" points="19.785,177.122 19.785,172.332 175.581,14.876 175.581,177.122 	"/>
	<rect x="196.154" y="219.435" style="fill:#CFF09E;" width="296.061" height="163.65"/>
</g>
<g>
	<path style="fill:#507C5C;" d="M492.215,204.559h-38.783V14.876c0-8.214-6.66-14.876-14.876-14.876H175.581
		c-0.179,0-0.354,0.021-0.531,0.027c-0.176,0.006-0.35,0.013-0.525,0.027c-0.637,0.046-1.269,0.118-1.889,0.242
		c-0.028,0.006-0.055,0.015-0.083,0.021c-0.602,0.125-1.19,0.298-1.77,0.495c-0.162,0.055-0.321,0.113-0.482,0.174
		c-0.576,0.219-1.141,0.463-1.687,0.751c-0.025,0.013-0.054,0.024-0.079,0.037c-0.567,0.305-1.105,0.659-1.629,1.037
		c-0.137,0.098-0.271,0.199-0.405,0.302c-0.521,0.403-1.026,0.827-1.495,1.3L9.21,161.87c-0.35,0.353-0.678,0.721-0.988,1.104
		c-0.202,0.25-0.381,0.512-0.565,0.771c-0.097,0.135-0.202,0.265-0.293,0.403c-0.213,0.323-0.402,0.655-0.586,0.989
		c-0.048,0.086-0.103,0.167-0.149,0.254c-0.181,0.344-0.341,0.698-0.494,1.052c-0.037,0.088-0.083,0.171-0.119,0.26
		c-0.14,0.341-0.256,0.687-0.367,1.035c-0.037,0.112-0.082,0.222-0.115,0.335c-0.095,0.321-0.17,0.646-0.242,0.971
		c-0.034,0.147-0.076,0.293-0.106,0.442c-0.058,0.302-0.095,0.605-0.135,0.909c-0.024,0.176-0.057,0.35-0.073,0.528
		c-0.028,0.303-0.034,0.608-0.045,0.913c-0.006,0.167-0.024,0.33-0.024,0.498v4.792c0,8.215,6.66,14.876,14.876,14.876h155.796
		c8.216,0,14.876-6.661,14.876-14.876V29.752H423.68v174.807H196.156c-8.216,0-14.876,6.661-14.876,14.876v163.644
		c0,8.214,6.66,14.876,14.876,14.876h296.059c8.216,0,14.876-6.661,14.876-14.876V219.435
		C507.091,211.219,500.431,204.559,492.215,204.559z M50.69,162.246l40.079-40.506l69.936-70.68v111.186H50.69z M477.339,368.203
		H211.032V234.311h266.308V368.203z"/>
	<path style="fill:#507C5C;" d="M251.972,260.856c0-4.094,4.35-6.141,8.699-6.141h44.393c4.222,0,6.013,4.478,6.013,8.572
		c0,4.734-2.175,8.827-6.013,8.827h-33.135v21.621h19.318c3.838,0,6.013,3.709,6.013,7.802c0,3.454-1.791,7.548-6.013,7.548h-19.318
		v33.007c0,4.094-4.989,6.141-9.979,6.141c-4.989,0-9.979-2.047-9.979-6.141L251.972,260.856L251.972,260.856z"/>
	<path style="fill:#507C5C;" d="M326.557,348.232c-4.35,0-8.699-2.047-8.699-6.141v-81.362c0-4.223,4.989-6.013,9.979-6.013
		c4.989,0,9.979,1.79,9.979,6.013v70.106h29.169c3.838,0,5.757,4.35,5.757,8.699s-1.919,8.699-5.757,8.699h-40.427V348.232z"/>
	<path style="fill:#507C5C;" d="M374.404,340.045c0-0.384,0.128-0.896,0.256-1.406l23.796-78.039
		c1.407-4.478,7.164-6.653,13.049-6.653s11.642,2.175,13.048,6.653l23.923,78.039c0.128,0.512,0.256,1.023,0.256,1.406
		c0,4.735-7.292,8.188-12.793,8.188c-3.198,0-5.757-1.023-6.525-3.71l-4.35-15.99H398.07l-4.35,15.99
		c-0.768,2.688-3.326,3.71-6.525,3.71C381.694,348.232,374.404,344.78,374.404,340.045z M420.842,313.179l-9.339-34.286
		l-9.339,34.286H420.842z"/>
</g>
</svg>