<?xml version="1.0" encoding="iso-8859-1"?>
<!-- Uploaded to: SVG Repo, www.svgrepo.com, Generator: SVG Repo Mixer Tools -->
<svg height="800px" width="800px" version="1.1" id="Layer_1" xmlns="http://www.w3.org/2000/svg" xmlns:xlink="http://www.w3.org/1999/xlink" 
	 viewBox="0 0 512 512" xml:space="preserve">
<path style="fill:#507C5C;" d="M472.829,512H39.171c-8.216,0-14.876-6.66-14.876-14.876V286.686c0-8.216,6.66-14.876,14.876-14.876
	s14.876,6.66,14.876,14.876v195.562h403.906V291.073c0-8.216,6.66-14.876,14.876-14.876c8.216,0,14.876,6.66,14.876,14.876v206.051
	C487.705,505.34,481.045,512,472.829,512z"/>
<polygon style="fill:#CFF09E;" points="39.171,192.008 39.171,187.217 209.852,14.876 209.852,192.008 "/>
<g>
	<path style="fill:#507C5C;" d="M472.829,0H209.852c-0.18,0-0.357,0.021-0.536,0.027c-0.171,0.006-0.339,0.013-0.509,0.025
		c-0.641,0.045-1.278,0.118-1.901,0.244c-0.015,0.003-0.031,0.009-0.046,0.012c-0.616,0.126-1.217,0.303-1.809,0.506
		c-0.158,0.054-0.312,0.11-0.467,0.168c-0.582,0.22-1.153,0.466-1.703,0.759c-0.022,0.012-0.045,0.019-0.067,0.031
		c-0.568,0.305-1.108,0.66-1.635,1.038c-0.135,0.097-0.268,0.196-0.4,0.299c-0.522,0.402-1.028,0.827-1.497,1.3L28.602,176.748
		c-0.35,0.353-0.678,0.721-0.988,1.104c-0.213,0.262-0.4,0.536-0.592,0.806c-0.086,0.123-0.183,0.24-0.265,0.364
		c-0.22,0.332-0.415,0.675-0.605,1.02c-0.042,0.076-0.091,0.147-0.131,0.223c-0.187,0.354-0.351,0.716-0.507,1.081
		c-0.033,0.077-0.073,0.152-0.106,0.231c-0.141,0.347-0.26,0.699-0.375,1.052c-0.034,0.107-0.077,0.211-0.11,0.318
		c-0.097,0.326-0.173,0.658-0.247,0.988c-0.033,0.143-0.073,0.281-0.101,0.425c-0.06,0.305-0.097,0.611-0.137,0.918
		c-0.022,0.174-0.057,0.347-0.073,0.521c-0.028,0.303-0.034,0.607-0.045,0.91c-0.006,0.168-0.025,0.335-0.025,0.503v4.792
		c0,8.216,6.66,14.876,14.876,14.876h170.681c8.216,0,14.876-6.66,14.876-14.876V29.752h233.223v159.912
		c0,8.216,6.66,14.876,14.876,14.876c8.216,0,14.876-6.66,14.876-14.876V14.876C487.705,6.66,481.045,0,472.829,0z M70.095,177.132
		l95.033-95.957l29.847-30.139v126.096H70.095z"/>
	<path style="fill:#507C5C;" d="M95.126,337.191l71.376-46.367c1.404-1.125,3.371-1.406,5.339-1.406
		c8.43,0,19.108,8.992,19.108,20.514c0,4.777-1.967,8.992-5.058,10.959l-49.457,32.035l49.457,32.035
		c3.091,1.967,5.058,6.182,5.058,10.959c0,11.521-10.678,20.512-19.108,20.512c-1.967,0-3.935-0.28-5.339-1.404l-71.376-46.367
		c-6.464-4.216-8.711-10.959-8.711-15.736S88.662,341.406,95.126,337.191z"/>
	<path style="fill:#507C5C;" d="M327.651,234.677c0,1.687-0.283,3.654-1.125,5.339L227.614,442.62
		c-1.967,4.216-7.307,7.026-12.646,7.026c-9.553,0-15.736-7.868-15.736-14.894c0-1.685,0.562-3.652,1.406-5.339l98.632-202.604
		c2.248-4.777,6.745-7.024,11.803-7.024C318.939,219.785,327.651,225.684,327.651,234.677z"/>
	<path style="fill:#507C5C;" d="M416.874,368.664l-71.376,46.367c-1.403,1.125-3.371,1.404-5.337,1.404
		c-8.43,0-19.11-8.993-19.11-20.512c0-4.777,1.968-8.993,5.059-10.959l49.457-32.035l-49.457-32.035
		c-3.091-1.967-5.059-6.182-5.059-10.959c0-11.521,10.679-20.514,19.11-20.514c1.967,0,3.935,0.281,5.337,1.406l71.376,46.367
		c6.462,4.214,8.711,10.959,8.711,15.736S423.336,364.449,416.874,368.664z"/>
</g>
</svg>