<?xml version="1.0" encoding="utf-8"?>
<!-- Generator: Adobe Illustrator 24.0.0, SVG Export Plug-In . SVG Version: 6.00 Build 0)  -->
<svg version="1.1" xmlns="http://www.w3.org/2000/svg" xmlns:xlink="http://www.w3.org/1999/xlink" x="0px" y="0px"
	 viewBox="0 0 64 64" enable-background="new 0 0 64 64" xml:space="preserve">
<g id="Captions">
</g>
<g id="Icons">
	<g>
		<g>
			<path fill="#3C3C3C" d="M38,32l1.547-1.031C42.329,29.114,44,25.992,44,22.648V16c0-6.627-5.373-12-12-12h0
				c-6.627,0-12,5.373-12,12v6.648c0,3.344,1.671,6.466,4.453,8.321L26,32H38z"/>
		</g>
		<g>
			<path fill="#505050" d="M44,36H20v-1.107c0-0.758,0.428-1.45,1.106-1.789L28,30l4,4l4-4l6.894,3.104
				C43.572,33.443,44,34.135,44,34.893V36z"/>
		</g>
		<g>
			<path fill="#3C3C3C" d="M25.106,33.104l4.136-1.862L28,30l-6.894,3.104C20.428,33.443,20,34.135,20,34.893V36h4v-1.107
				C24,34.135,24.428,33.443,25.106,33.104z"/>
		</g>
		<g>
			<polygon fill="#D2AA82" points="28,30 28,25.657 36,25.657 36,30 32,34 			"/>
		</g>
		<g>
			<path fill="#64C8F0" d="M43.854,40.261c0.701-1.286,2.047-2.085,3.512-2.085s2.811,0.799,3.512,2.085L52,42.318V38
				c0-1.105-0.895-2-2-2H14c-1.105,0-2,0.895-2,2v16c0,1.105,0.895,2,2,2h21.27L43.854,40.261z"/>
		</g>
		<g>
			<path fill="#505050" d="M35.224,56.085L35.27,56H14c-1.105,0-2,0.895-2,2c0,1.105,0.895,2,2,2h21.274
				C34.57,58.782,34.549,57.323,35.224,56.085z"/>
		</g>
		<g>
			<path fill="#F0C8A0" d="M40,22.343V18c0-4.418-3.582-8-8-8h0c-4.418,0-8,3.582-8,8v4.343c0,1.061,0.421,2.078,1.172,2.828
				l1.657,1.657c0.75,0.75,1.768,1.172,2.828,1.172h4.686c1.061,0,2.078-0.421,2.828-1.172l1.657-1.657
				C39.579,24.421,40,23.404,40,22.343z"/>
		</g>
		<g>
			<path fill="#46AAD2" d="M16,54V38c0-1.105,0.895-2,2-2h-4c-1.105,0-2,0.895-2,2v16c0,1.104,0.895,2,2,2h4
				C16.895,56,16,55.104,16,54z"/>
		</g>
		<g>
			<path fill="#3C3C3C" d="M16,58c0-1.105,0.895-2,2-2h-4c-1.105,0-2,0.895-2,2c0,1.104,0.895,2,2,2h4C16.895,60,16,59.104,16,58z"
				/>
		</g>
		<g>
			<path fill="#505050" d="M32,4c-6.627,0-12,5.373-12,12v6.648c0,1.215,0.227,2.399,0.641,3.506C22.246,21.415,26.72,18,32,18
				s9.754,3.415,11.359,8.154C43.773,25.047,44,23.863,44,22.648V16C44,9.373,38.627,4,32,4L32,4z"/>
		</g>
		<g>
			<path fill="#F0F0F0" d="M31.533,42.027c-1.785,0.202-3.247,1.625-3.493,3.404c-0.196,1.418,0.355,2.713,1.312,3.56
				c0.164,0.145,0.249,0.36,0.249,0.579V49.6c0,0.221,0.179,0.4,0.4,0.4h0.4c0.221,0,0.4-0.179,0.4-0.4l0,0
				c0-0.221,0.179-0.4,0.4-0.4l0,0c0.221,0,0.4,0.179,0.4,0.4l0,0c0,0.221,0.179,0.4,0.4,0.4l0,0c0.221,0,0.4-0.179,0.4-0.4l0,0
				c0-0.221,0.179-0.4,0.4-0.4l0,0c0.221,0,0.4,0.179,0.4,0.4l0,0c0,0.221,0.179,0.4,0.4,0.4H34c0.221,0,0.4-0.179,0.4-0.4v-0.03
				c0-0.22,0.086-0.435,0.251-0.581C35.477,48.257,36,47.191,36,46C36,43.637,33.951,41.753,31.533,42.027z M30.4,47.2
				c-0.663,0-1.2-0.537-1.2-1.2s0.537-1.2,1.2-1.2s1.2,0.537,1.2,1.2S31.063,47.2,30.4,47.2z M32,48c-0.221,0-0.4-0.179-0.4-0.4
				c0-0.221,0.179-0.4,0.4-0.4s0.4,0.179,0.4,0.4C32.4,47.821,32.221,48,32,48z M33.6,47.2c-0.663,0-1.2-0.537-1.2-1.2
				s0.537-1.2,1.2-1.2s1.2,0.537,1.2,1.2S34.263,47.2,33.6,47.2z"/>
		</g>
		<g>
			<path fill="#FA6450" d="M45.61,41.219L36.98,57.042C36.253,58.375,37.217,60,38.735,60h17.262c1.518,0,2.483-1.625,1.756-2.958
				l-8.631-15.823C48.364,39.829,46.368,39.829,45.61,41.219z"/>
		</g>
		<g>
			<path fill="#DC4632" d="M38.346,57.042l8.631-15.823c0.251-0.459,0.641-0.752,1.073-0.908c-0.874-0.315-1.931-0.023-2.439,0.908
				L36.98,57.042C36.253,58.375,37.217,60,38.735,60h1.366C38.583,60,37.619,58.375,38.346,57.042z"/>
		</g>
		<g>
			<path fill="#F0F0F0" d="M47.366,52L47.366,52c-0.552,0-1-0.448-1-1v-4c0-0.552,0.448-1,1-1h0c0.552,0,1,0.448,1,1v4
				C48.366,51.552,47.919,52,47.366,52z"/>
		</g>
		<g>
			<path fill="#F0F0F0" d="M47.366,56L47.366,56c-0.552,0-1-0.448-1-1l0,0c0-0.552,0.448-1,1-1h0c0.552,0,1,0.448,1,1l0,0
				C48.366,55.552,47.919,56,47.366,56z"/>
		</g>
	</g>
</g>
</svg>
