<?xml version="1.0" encoding="iso-8859-1"?>
<!-- Uploaded to: SVG Repo, www.svgrepo.com, Generator: SVG Repo Mixer Tools -->
<svg version="1.1" id="Layer_1" xmlns="http://www.w3.org/2000/svg" xmlns:xlink="http://www.w3.org/1999/xlink" 
	 viewBox="0 0 512 512" xml:space="preserve">
<path style="fill:#507C5C;" d="M438.558,512H19.786c-8.214,0-14.876-6.66-14.876-14.876V256.916c0-8.216,6.661-14.876,14.876-14.876
	s14.876,6.66,14.876,14.876v225.332h389.021v-32.833c0-8.216,6.661-14.876,14.876-14.876c8.214,0,14.876,6.66,14.876,14.876v47.709
	C453.434,505.34,446.773,512,438.558,512z"/>
<g>
	<polygon style="fill:#CFF09E;" points="19.786,177.122 19.786,172.332 175.581,14.876 175.581,177.122 	"/>
	<rect x="196.155" y="219.435" style="fill:#CFF09E;" width="296.061" height="163.65"/>
</g>
<g>
	<path style="fill:#507C5C;" d="M492.216,204.559h-38.782V14.876C453.434,6.66,446.773,0,438.558,0H175.581
		c-0.183,0-0.364,0.021-0.547,0.027c-0.165,0.006-0.327,0.013-0.492,0.025c-0.646,0.045-1.287,0.118-1.916,0.245
		c-0.004,0.001-0.009,0.003-0.013,0.003c-0.628,0.128-1.241,0.309-1.846,0.516c-0.15,0.052-0.299,0.106-0.448,0.162
		c-0.594,0.225-1.177,0.475-1.738,0.774c-0.012,0.007-0.025,0.012-0.039,0.018c-0.571,0.306-1.114,0.665-1.644,1.044
		c-0.132,0.095-0.262,0.193-0.391,0.293c-0.524,0.403-1.031,0.83-1.501,1.305L9.21,161.868c-0.35,0.353-0.678,0.721-0.988,1.104
		c-0.207,0.254-0.388,0.521-0.576,0.784c-0.092,0.131-0.195,0.256-0.283,0.388c-0.213,0.323-0.403,0.656-0.588,0.991
		c-0.048,0.085-0.103,0.167-0.147,0.253c-0.181,0.344-0.339,0.695-0.491,1.047c-0.039,0.089-0.085,0.174-0.12,0.263
		c-0.138,0.338-0.253,0.68-0.364,1.025c-0.037,0.116-0.083,0.229-0.119,0.345c-0.094,0.315-0.165,0.634-0.238,0.954
		c-0.036,0.155-0.08,0.305-0.11,0.461c-0.057,0.292-0.091,0.586-0.131,0.881c-0.025,0.186-0.06,0.37-0.077,0.558
		c-0.027,0.286-0.031,0.573-0.043,0.86c-0.006,0.183-0.027,0.364-0.027,0.547v4.792c0,8.216,6.661,14.876,14.876,14.876H175.58
		c8.214,0,14.876-6.66,14.876-14.876V29.752h233.226v174.807H196.155c-8.214,0-14.876,6.66-14.876,14.876v163.644
		c0,8.216,6.661,14.876,14.876,14.876h296.061c8.215,0,14.876-6.66,14.876-14.876V219.435
		C507.092,211.219,500.43,204.559,492.216,204.559z M160.705,162.246H50.692l56.297-56.896l53.718-54.29v111.186H160.705z
		 M477.34,368.203H211.031V234.311H477.34V368.203z"/>
	<path style="fill:#507C5C;" d="M239.262,264.943c0-3.731,4.409-5.314,8.818-5.314c4.411,0,8.82,1.583,8.82,5.314v71.909
		c0,3.618-4.409,5.427-8.82,5.427c-4.409,0-8.818-1.81-8.818-5.427V264.943z"/>
	<path style="fill:#507C5C;" d="M308.227,337.529l-21.481-39.121v38.442c0,3.618-4.411,5.427-8.818,5.427
		c-4.411,0-8.821-1.81-8.821-5.427v-71.796c0-3.731,4.411-5.427,8.821-5.427c6.331,0,8.705,0.567,13.002,8.82l18.317,34.936v-38.442
		c0-3.731,4.409-5.314,8.818-5.314c4.411,0,8.82,1.583,8.82,5.314v71.909c0,3.618-4.409,5.427-8.82,5.427
		C313.993,342.279,310.377,341.488,308.227,337.529z"/>
	<path style="fill:#507C5C;" d="M366.788,259.628c15.603,0,27.814,7.236,27.814,26.684v29.283c0,19.447-12.21,26.684-27.814,26.684
		h-20.011c-4.635,0-7.689-2.487-7.689-5.314v-72.022c0-2.825,3.054-5.314,7.689-5.314h20.011V259.628z M356.727,275.005v51.896
		h10.062c6.333,0,10.177-3.618,10.177-11.307v-29.283c0-7.688-3.844-11.307-10.177-11.307h-10.062V275.005z"/>
	<path style="fill:#507C5C;" d="M433.491,259.628c15.603,0,27.814,7.236,27.814,26.684v29.283c0,19.447-12.21,26.684-27.814,26.684
		H413.48c-4.635,0-7.689-2.487-7.689-5.314v-72.022c0-2.825,3.054-5.314,7.689-5.314h20.011V259.628z M423.431,275.005v51.896
		h10.062c6.333,0,10.177-3.618,10.177-11.307v-29.283c0-7.688-3.844-11.307-10.177-11.307h-10.062V275.005z"/>
</g>
</svg>