<?xml version="1.0" encoding="iso-8859-1"?>
<!-- Uploaded to: SVG Repo, www.svgrepo.com, Generator: SVG Repo Mixer Tools -->
<svg version="1.1" id="Layer_1" xmlns="http://www.w3.org/2000/svg" xmlns:xlink="http://www.w3.org/1999/xlink" 
	 viewBox="0 0 512 512" xml:space="preserve">
<path style="fill:#507C5C;" d="M438.556,512H19.785c-8.216,0-14.876-6.66-14.876-14.876V256.916c0-8.216,6.66-14.876,14.876-14.876
	s14.876,6.66,14.876,14.876v225.332H423.68v-32.833c0-8.216,6.66-14.876,14.876-14.876c8.216,0,14.876,6.66,14.876,14.876v47.709
	C453.432,505.34,446.772,512,438.556,512z"/>
<g>
	<polygon style="fill:#CFF09E;" points="19.785,177.122 19.785,172.332 175.581,14.876 175.581,177.122 	"/>
	<rect x="196.154" y="219.435" style="fill:#CFF09E;" width="296.061" height="163.65"/>
</g>
<g>
	<path style="fill:#507C5C;" d="M492.215,204.559h-38.783V14.876C453.432,6.66,446.772,0,438.556,0H175.581
		c-0.18,0-0.357,0.021-0.536,0.027c-0.173,0.006-0.342,0.013-0.515,0.025c-0.64,0.046-1.275,0.118-1.898,0.244
		c-0.019,0.004-0.037,0.01-0.057,0.015c-0.613,0.126-1.211,0.302-1.8,0.504c-0.156,0.054-0.311,0.109-0.466,0.168
		c-0.585,0.222-1.159,0.469-1.712,0.762c-0.019,0.01-0.039,0.018-0.058,0.028c-0.568,0.305-1.11,0.662-1.636,1.04
		c-0.135,0.097-0.266,0.196-0.399,0.298c-0.522,0.403-1.028,0.829-1.497,1.302L9.21,161.868c-0.35,0.353-0.678,0.721-0.988,1.104
		c-0.207,0.254-0.388,0.521-0.576,0.784c-0.092,0.131-0.195,0.256-0.283,0.388c-0.214,0.324-0.406,0.66-0.592,0.998
		c-0.046,0.083-0.1,0.162-0.143,0.245c-0.183,0.347-0.342,0.701-0.495,1.056c-0.037,0.086-0.082,0.168-0.118,0.256
		c-0.14,0.341-0.256,0.689-0.369,1.038c-0.036,0.112-0.08,0.219-0.113,0.33c-0.095,0.321-0.17,0.646-0.242,0.971
		c-0.034,0.147-0.076,0.293-0.106,0.442c-0.058,0.3-0.095,0.604-0.134,0.907c-0.024,0.177-0.057,0.351-0.073,0.53
		c-0.028,0.303-0.034,0.607-0.045,0.912c-0.006,0.167-0.024,0.332-0.024,0.498v4.792c0,8.216,6.66,14.876,14.876,14.876h155.796
		c8.216,0,14.876-6.66,14.876-14.876V29.752h233.223v174.807H196.156c-8.216,0-14.876,6.66-14.876,14.876v163.644
		c0,8.216,6.66,14.876,14.876,14.876h296.059c8.216,0,14.876-6.66,14.876-14.876V219.435
		C507.091,211.219,500.431,204.559,492.215,204.559z M50.691,162.246L160.705,51.06v111.186H50.691z M477.339,368.203H211.032
		V234.311h266.308V368.203z"/>
	<path style="fill:#507C5C;" d="M267.502,258.693c0-4.318,5.105-6.153,10.211-6.153c5.105,0,10.211,1.833,10.211,6.153v83.256
		c0,4.189-5.105,6.284-10.211,6.284c-5.105,0-10.211-2.093-10.211-6.284V258.693z"/>
	<path style="fill:#507C5C;" d="M341.331,322.576c0-15.838-41.496-13.091-41.496-43.723c0-19.635,17.149-27.097,33.511-27.097
		c6.938,0,26.051,1.309,26.051,11.518c0,3.535-2.356,10.734-8.116,10.734c-4.713,0-7.2-4.975-17.934-4.975
		c-9.294,0-13.091,3.796-13.091,7.855c0,13.091,41.498,10.604,41.498,43.591c0,18.851-13.745,29.06-32.727,29.06
		c-17.149,0-31.549-8.378-31.549-17.017c0-4.451,3.927-10.996,8.902-10.996c6.153,0,10.08,9.687,22.253,9.687
		C334.655,331.214,341.331,328.858,341.331,322.576z"/>
	<path style="fill:#507C5C;" d="M370.786,318.125v-34.689c0-22.516,14.007-30.894,32.073-30.894
		c18.065,0,32.202,8.378,32.202,30.894v34.689c0,22.516-14.137,30.894-32.202,30.894
		C384.791,349.018,370.786,340.64,370.786,318.125z M414.638,283.434c0-9.031-4.451-13.091-11.78-13.091
		c-7.331,0-11.651,4.06-11.651,13.091v34.689c0,9.033,4.32,13.091,11.651,13.091s11.78-4.058,11.78-13.091V283.434z"/>
</g>
</svg>