<?xml version="1.0" encoding="iso-8859-1"?>
<!-- Uploaded to: SVG Repo, www.svgrepo.com, Generator: SVG Repo Mixer Tools -->
<svg version="1.1" id="Layer_1" xmlns="http://www.w3.org/2000/svg" xmlns:xlink="http://www.w3.org/1999/xlink" 
	 viewBox="0 0 512 512" xml:space="preserve">
<path style="fill:#507C5C;" d="M438.557,512H19.785c-8.216,0-14.876-6.661-14.876-14.876V256.915c0-8.214,6.66-14.876,14.876-14.876
	s14.876,6.661,14.876,14.876v225.333h389.021v-32.833c0-8.214,6.661-14.876,14.876-14.876c8.215,0,14.876,6.661,14.876,14.876
	v47.709C453.433,505.339,446.772,512,438.557,512z"/>
<g>
	<polygon style="fill:#CFF09E;" points="19.785,177.122 19.785,172.332 175.581,14.876 175.581,177.122 	"/>
	<rect x="196.154" y="219.435" style="fill:#CFF09E;" width="296.061" height="163.65"/>
</g>
<g>
	<path style="fill:#507C5C;" d="M492.215,204.559h-38.782V14.876C453.433,6.661,446.772,0,438.557,0H175.581
		c-0.179,0-0.354,0.021-0.531,0.027c-0.176,0.006-0.35,0.013-0.525,0.027c-0.637,0.046-1.267,0.118-1.888,0.242
		c-0.03,0.006-0.057,0.016-0.086,0.022c-0.601,0.125-1.187,0.298-1.766,0.495c-0.164,0.057-0.324,0.115-0.485,0.176
		c-0.573,0.217-1.137,0.461-1.679,0.748c-0.028,0.015-0.058,0.025-0.086,0.04c-0.565,0.305-1.102,0.659-1.627,1.035
		c-0.137,0.098-0.272,0.199-0.406,0.303c-0.521,0.402-1.026,0.826-1.494,1.299L9.21,161.87c-0.35,0.353-0.678,0.721-0.988,1.104
		c-0.202,0.25-0.381,0.512-0.565,0.771c-0.097,0.135-0.202,0.265-0.293,0.403c-0.213,0.323-0.402,0.655-0.586,0.989
		c-0.048,0.086-0.103,0.167-0.149,0.254c-0.181,0.344-0.341,0.698-0.494,1.052c-0.037,0.088-0.083,0.171-0.119,0.26
		c-0.14,0.341-0.256,0.687-0.367,1.035c-0.037,0.112-0.082,0.222-0.115,0.335c-0.095,0.321-0.17,0.646-0.242,0.971
		c-0.034,0.147-0.076,0.293-0.106,0.442c-0.058,0.302-0.095,0.605-0.135,0.909c-0.024,0.176-0.057,0.35-0.073,0.528
		c-0.028,0.303-0.034,0.608-0.045,0.913c-0.006,0.167-0.024,0.33-0.024,0.498v4.792c0,8.215,6.66,14.876,14.876,14.876h155.796
		c8.216,0,14.876-6.661,14.876-14.876V29.752h233.225v174.807H196.156c-8.216,0-14.876,6.661-14.876,14.876v163.644
		c0,8.214,6.66,14.876,14.876,14.876h296.059c8.215,0,14.876-6.661,14.876-14.876V219.435
		C507.091,211.219,500.43,204.559,492.215,204.559z M50.69,162.246l40.079-40.506l69.936-70.68v111.186H50.69z M477.339,368.203
		H211.032V234.311h266.308V368.203z"/>
	<path style="fill:#507C5C;" d="M279.703,316.639c-1.586,2.685-4.025,3.538-6.345,3.538c-2.196,0-4.512-0.73-5.977-3.538
		l-11.588-21.225v46.963c0,3.903-4.757,5.855-9.515,5.855c-4.757,0-9.515-1.952-9.515-5.855v-73.8c0-6.954,4.757-9.515,9.515-9.515
		c6.831,0,9.759,0.732,14.76,9.515l12.563,21.957l12.564-21.957c5.001-8.783,7.929-9.515,14.761-9.515
		c4.878,0,9.515,2.562,9.515,9.515v73.8c0,3.903-4.757,5.855-9.515,5.855c-4.759,0-9.515-1.952-9.515-5.855v-45.745L279.703,316.639
		z"/>
	<path style="fill:#507C5C;" d="M322.64,320.175v-32.324c0-20.981,13.052-28.789,29.887-28.789c16.832,0,30.008,7.807,30.008,28.789
		v32.324c0,20.981-13.174,28.789-30.008,28.789C335.692,348.964,322.64,341.157,322.64,320.175z M363.504,287.851
		c0-8.417-4.147-12.198-10.978-12.198c-6.833,0-10.856,3.781-10.856,12.198v32.324c0,8.417,4.024,12.198,10.856,12.198
		c6.831,0,10.978-3.781,10.978-12.198V287.851z"/>
	<path style="fill:#507C5C;" d="M388.875,268.212c-0.122-0.488-0.244-0.976-0.244-1.342c0-4.513,6.953-7.807,12.2-7.807
		c3.048,0,5.488,0.976,6.221,3.538l17.078,62.577l16.954-62.577c0.73-2.562,3.172-3.538,6.223-3.538
		c5.244,0,12.197,3.294,12.197,7.807c0,0.366-0.122,0.854-0.244,1.342l-22.689,74.411c-1.342,4.269-6.831,6.343-12.441,6.343
		c-5.613,0-11.102-2.074-12.444-6.343L388.875,268.212z"/>
</g>
</svg>