<?xml version="1.0" encoding="iso-8859-1"?>
<!-- Uploaded to: SVG Repo, www.svgrepo.com, Generator: SVG Repo Mixer Tools -->
<svg version="1.1" id="Layer_1" xmlns="http://www.w3.org/2000/svg" xmlns:xlink="http://www.w3.org/1999/xlink" 
	 viewBox="0 0 512 512" xml:space="preserve">
<path style="fill:#507C5C;" d="M438.558,512H19.786c-8.214,0-14.876-6.66-14.876-14.876V256.916c0-8.216,6.661-14.876,14.876-14.876
	s14.876,6.66,14.876,14.876v225.332h389.021v-32.833c0-8.216,6.661-14.876,14.876-14.876c8.214,0,14.876,6.66,14.876,14.876v47.709
	C453.434,505.34,446.773,512,438.558,512z"/>
<g>
	<polygon style="fill:#CFF09E;" points="19.786,177.122 19.786,172.332 175.581,14.876 175.581,177.122 	"/>
	<rect x="196.155" y="219.435" style="fill:#CFF09E;" width="296.061" height="163.65"/>
</g>
<g>
	<path style="fill:#507C5C;" d="M492.216,204.559h-38.782V14.876C453.434,6.66,446.773,0,438.558,0H175.581
		c-0.18,0-0.357,0.021-0.536,0.027c-0.173,0.006-0.344,0.013-0.516,0.025c-0.64,0.046-1.275,0.118-1.898,0.244
		c-0.019,0.004-0.037,0.01-0.057,0.015c-0.613,0.126-1.211,0.302-1.8,0.504c-0.156,0.054-0.312,0.11-0.467,0.168
		c-0.583,0.222-1.156,0.467-1.708,0.76c-0.021,0.01-0.042,0.018-0.062,0.03c-0.568,0.305-1.11,0.662-1.636,1.04
		c-0.134,0.097-0.266,0.196-0.397,0.298c-0.522,0.403-1.029,0.829-1.498,1.302L9.21,161.868c-0.35,0.353-0.678,0.721-0.988,1.104
		c-0.207,0.254-0.388,0.521-0.576,0.784c-0.092,0.131-0.195,0.256-0.283,0.388c-0.213,0.323-0.403,0.656-0.588,0.991
		c-0.048,0.086-0.103,0.167-0.147,0.253c-0.181,0.342-0.339,0.695-0.491,1.047c-0.039,0.089-0.085,0.174-0.12,0.263
		c-0.138,0.338-0.253,0.681-0.364,1.025c-0.037,0.116-0.083,0.229-0.119,0.345c-0.094,0.315-0.165,0.634-0.238,0.954
		c-0.036,0.155-0.079,0.305-0.11,0.461c-0.057,0.292-0.091,0.586-0.131,0.881c-0.025,0.186-0.06,0.37-0.077,0.558
		c-0.027,0.286-0.031,0.573-0.043,0.86c-0.007,0.183-0.027,0.364-0.027,0.547v4.792c0,8.216,6.661,14.876,14.876,14.876H175.58
		c8.214,0,14.876-6.66,14.876-14.876V29.752h233.226v174.807H196.155c-8.214,0-14.876,6.66-14.876,14.876v163.644
		c0,8.216,6.661,14.876,14.876,14.876h296.061c8.215,0,14.876-6.66,14.876-14.876V219.435
		C507.092,211.219,500.43,204.559,492.216,204.559z M160.705,162.246H50.692l56.297-56.896l53.718-54.29v111.186H160.705z
		 M477.34,368.203H211.031V234.311H477.34V368.203z"/>
	<path style="fill:#507C5C;" d="M239.06,260.729c0-3.198,2.942-6.013,7.419-6.013h26.482c16.887,0,30.192,7.93,30.192,29.423v0.64
		c0,21.493-13.817,29.68-31.47,29.68h-12.667v27.632c0,4.094-4.989,6.141-9.979,6.141s-9.977-2.047-9.977-6.141V260.729z
		 M259.016,272.114v26.994h12.667c7.163,0,11.513-4.094,11.513-12.793v-1.407c0-8.699-4.35-12.793-11.513-12.793L259.016,272.114
		L259.016,272.114z"/>
	<path style="fill:#507C5C;" d="M356.116,342.859l-24.307-44.265v43.496c0,4.094-4.989,6.141-9.979,6.141
		c-4.989,0-9.977-2.047-9.977-6.141v-81.235c0-4.222,4.989-6.141,9.977-6.141c7.164,0,9.851,0.64,14.714,9.977l20.725,39.531
		v-43.496c0-4.223,4.989-6.013,9.979-6.013s9.979,1.79,9.979,6.013v81.362c0,4.094-4.989,6.141-9.979,6.141
		C362.639,348.232,358.545,347.337,356.116,342.859z"/>
	<path style="fill:#507C5C;" d="M421.488,272.114c-7.292,0-11.514,4.094-11.514,12.793v33.902c0,8.699,4.222,12.793,11.386,12.793
		c7.163,0,11.514-4.094,11.514-12.793v-4.35h-7.548c-3.838,0-6.013-3.71-6.013-7.676c0-3.71,2.175-7.676,6.013-7.676h21.491
		c3.838,0,6.013,2.944,6.013,6.269v13.433c0,22.004-13.815,30.192-31.47,30.192c-17.655,0-31.342-8.188-31.342-30.192v-33.902
		c0-22.003,13.943-30.191,30.704-30.191c18.294,0,32.11,9.21,32.11,25.457c0,7.676-3.197,9.467-9.979,9.467
		c-5.372,0-9.849-1.407-9.977-6.013C432.745,279.021,432.362,272.114,421.488,272.114z"/>
</g>
</svg>