<?xml version="1.0" encoding="iso-8859-1"?>
<!-- Uploaded to: SVG Repo, www.svgrepo.com, Generator: SVG Repo Mixer Tools -->
<svg version="1.1" id="Layer_1" xmlns="http://www.w3.org/2000/svg" xmlns:xlink="http://www.w3.org/1999/xlink" 
	 viewBox="0 0 512 512" xml:space="preserve">
<path style="fill:#507C5C;" d="M438.556,512H19.785c-8.216,0-14.876-6.661-14.876-14.876V256.915c0-8.214,6.66-14.876,14.876-14.876
	s14.876,6.661,14.876,14.876v225.333H423.68v-32.833c0-8.214,6.66-14.876,14.876-14.876c8.216,0,14.876,6.661,14.876,14.876v47.709
	C453.432,505.339,446.772,512,438.556,512z"/>
<g>
	<polygon style="fill:#CFF09E;" points="19.785,177.122 19.785,172.332 175.581,14.876 175.581,177.122 	"/>
	<rect x="196.154" y="219.435" style="fill:#CFF09E;" width="296.061" height="163.65"/>
</g>
<g>
	<path style="fill:#507C5C;" d="M492.215,204.559h-38.783V14.876c0-8.214-6.66-14.876-14.876-14.876H175.581
		c-0.181,0-0.36,0.021-0.541,0.027c-0.17,0.006-0.338,0.013-0.507,0.025c-0.641,0.046-1.276,0.118-1.901,0.244
		c-0.019,0.004-0.039,0.01-0.06,0.015c-0.61,0.126-1.206,0.302-1.796,0.503c-0.159,0.055-0.315,0.112-0.473,0.171
		c-0.579,0.22-1.148,0.466-1.696,0.756c-0.024,0.012-0.049,0.021-0.071,0.034c-0.567,0.305-1.107,0.66-1.632,1.038
		c-0.137,0.098-0.269,0.198-0.403,0.3c-0.521,0.403-1.026,0.827-1.495,1.3L9.21,161.87c-0.35,0.353-0.678,0.721-0.988,1.104
		c-0.202,0.25-0.381,0.512-0.565,0.771c-0.097,0.135-0.202,0.265-0.293,0.403c-0.213,0.323-0.402,0.655-0.586,0.989
		c-0.048,0.086-0.103,0.167-0.149,0.254c-0.181,0.344-0.341,0.698-0.494,1.052c-0.037,0.088-0.083,0.171-0.119,0.26
		c-0.14,0.341-0.256,0.687-0.367,1.035c-0.037,0.112-0.082,0.222-0.115,0.335c-0.095,0.321-0.17,0.646-0.242,0.971
		c-0.034,0.147-0.076,0.293-0.106,0.442c-0.058,0.302-0.095,0.605-0.135,0.909c-0.024,0.176-0.057,0.35-0.073,0.528
		c-0.028,0.303-0.034,0.608-0.045,0.913c-0.006,0.167-0.024,0.33-0.024,0.498v4.792c0,8.215,6.66,14.876,14.876,14.876h155.796
		c8.216,0,14.876-6.661,14.876-14.876V29.752H423.68v174.807H196.156c-8.216,0-14.876,6.661-14.876,14.876v163.644
		c0,8.214,6.66,14.876,14.876,14.876h296.059c8.216,0,14.876-6.661,14.876-14.876V219.435
		C507.091,211.219,500.431,204.559,492.215,204.559z M50.69,162.246l40.079-40.506l69.936-70.68v111.186H50.69z M477.339,368.203
		H211.032V234.311h266.308V368.203z"/>
	<path style="fill:#507C5C;" d="M248.834,259.786c0-3.125,2.874-5.875,7.248-5.875h25.866c16.494,0,29.49,7.749,29.49,28.74v0.625
		c0,20.993-13.495,28.99-30.74,28.99h-12.371v26.992c0,3.999-4.873,5.997-9.747,5.997c-4.873,0-9.747-1.999-9.747-5.997V259.786z
		 M268.328,270.904v26.368h12.371c6.998,0,11.246-3.999,11.246-12.496v-1.375c0-8.497-4.249-12.496-11.246-12.496h-12.371V270.904z"
		/>
	<path style="fill:#507C5C;" d="M357.421,320.764c0-15.12-39.612-12.494-39.612-41.736c0-18.744,16.37-25.868,31.989-25.868
		c6.623,0,24.867,1.25,24.867,10.998c0,3.374-2.249,10.247-7.747,10.247c-4.498,0-6.873-4.748-17.119-4.748
		c-8.872,0-12.496,3.625-12.496,7.499c0,12.494,39.612,10.12,39.612,41.609c0,17.995-13.121,27.741-31.239,27.741
		c-16.369,0-30.115-7.997-30.115-16.245c0-4.247,3.749-10.496,8.497-10.496c5.873,0,9.622,9.247,21.243,9.247
		C351.047,329.011,357.421,326.762,357.421,320.764z"/>
	<path style="fill:#507C5C;" d="M417.148,253.911c17.244,0,30.74,7.999,30.74,29.49v32.364c0,21.493-13.495,29.49-30.74,29.49
		H395.03c-5.123,0-8.497-2.749-8.497-5.872v-79.598c0-3.125,3.374-5.875,8.497-5.875H417.148z M406.028,270.904v57.357h11.121
		c6.998,0,11.246-3.999,11.246-12.496v-32.364c0-8.497-4.249-12.496-11.246-12.496h-11.121V270.904z"/>
</g>
</svg>