<?xml version="1.0" encoding="iso-8859-1"?>
<!-- Generator: Adobe Illustrator 21.0.2, SVG Export Plug-In . SVG Version: 6.00 Build 0)  -->
<svg version="1.1" xmlns="http://www.w3.org/2000/svg" xmlns:xlink="http://www.w3.org/1999/xlink" x="0px" y="0px"
	 viewBox="0 0 64 64" style="enable-background:new 0 0 64 64;" xml:space="preserve">
<g id="css">
</g>
<g id="mobile_development">
</g>
<g id="code">
</g>
<g id="hardware_programming">
</g>
<g id="python">
</g>
<g id="development">
</g>
<g id="update">
</g>
<g id="maintenance">
</g>
<g id="peformance_testing">
</g>
<g id="programming">
</g>
<g id="hacker">
</g>
<g id="web_programming">
</g>
<g id="html">
</g>
<g id="typing">
</g>
<g id="search_1_">
</g>
<g id="android">
</g>
<g id="coding">
</g>
<g id="file">
</g>
<g id="api">
</g>
<g id="java">
</g>
<g id="xml">
</g>
<g id="security">
</g>
<g id="algorithm">
</g>
<g id="php">
</g>
<g id="eror">
</g>
<g id="bug">
</g>
<g id="c_x2B__x2B_">
</g>
<g id="search">
</g>
<g id="binary">
	<g>
		<path d="M24.5718,23.8594v4.2852c0,0.5522,0.4478,1,1,1s1-0.4478,1-1v-5.9512c0-0.3818-0.2178-0.731-0.561-0.8984
			c-0.3418-0.168-0.752-0.125-1.0537,0.1094l-0.8662,0.6748c-0.4355,0.3398-0.5137,0.9678-0.1743,1.4038
			C24.084,23.6978,24.3218,23.8252,24.5718,23.8594z"/>
		<path d="M32.895,21.1934c-1.5664,0-2.7935,1.7461-2.7935,3.9746c0,2.23,1.2271,3.9766,2.7935,3.9766
			c1.5659,0,2.793-1.7466,2.793-3.9766C35.688,22.9395,34.4609,21.1934,32.895,21.1934z M32.895,27.1445
			c-0.2041,0-0.7935-0.6797-0.7935-1.9766c0-1.2959,0.5894-1.9746,0.7935-1.9746c0.2036,0,0.793,0.6787,0.793,1.9746
			C33.688,26.4648,33.0986,27.1445,32.895,27.1445z"/>
		<path d="M25.5752,32.1719c-1.5664,0-2.7935,1.7471-2.7935,3.9775s1.2271,3.9775,2.7935,3.9775c1.5659,0,2.793-1.7471,2.793-3.9775
			S27.1411,32.1719,25.5752,32.1719z M25.5752,38.127c-0.2041,0-0.7935-0.6802-0.7935-1.9775s0.5894-1.9775,0.7935-1.9775
			c0.2036,0,0.793,0.6802,0.793,1.9775S25.7788,38.127,25.5752,38.127z"/>
		<path d="M18.2549,21.1934c-1.5659,0-2.793,1.7461-2.793,3.9746c0,2.23,1.2271,3.9766,2.793,3.9766
			c1.5645,0,2.79-1.7466,2.79-3.9766C21.0449,22.9395,19.8193,21.1934,18.2549,21.1934z M18.2549,27.1445
			c-0.2036,0-0.793-0.6797-0.793-1.9766c0-1.2959,0.5894-1.9746,0.793-1.9746c0.2031,0,0.79,0.6787,0.79,1.9746
			C19.0449,26.4648,18.458,27.1445,18.2549,27.1445z"/>
		<path d="M39.2148,23.8594v4.2852c0,0.5522,0.4478,1,1,1s1-0.4478,1-1v-5.9512c0-0.3818-0.2173-0.7305-0.5601-0.8979
			c-0.3428-0.168-0.751-0.1265-1.0532,0.1079l-0.8691,0.6748c-0.436,0.3389-0.5151,0.9673-0.1768,1.4033
			C38.7236,23.6978,38.9629,23.8262,39.2148,23.8594z"/>
		<path d="M47.9741,21.2949c-0.3418-0.168-0.752-0.125-1.0537,0.1094l-0.8662,0.6748c-0.4355,0.3398-0.5137,0.9678-0.1743,1.4038
			c0.1675,0.2148,0.4053,0.3423,0.6553,0.3765v4.2852c0,0.5522,0.4478,1,1,1s1-0.4478,1-1v-5.9512
			C48.5352,21.8115,48.3174,21.4624,47.9741,21.2949z"/>
		<path d="M33.3359,32.2783c-0.3398-0.1675-0.7495-0.1265-1.0518,0.1055l-0.8696,0.6709c-0.4375,0.3374-0.5181,0.9653-0.1812,1.4028
			c0.1685,0.2178,0.4087,0.3472,0.6616,0.3809v4.2886c0,0.5522,0.4478,1,1,1s1-0.4478,1-1v-5.9512
			C33.895,32.7944,33.6782,32.4463,33.3359,32.2783z"/>
		<path d="M18.6914,32.2778c-0.3428-0.1685-0.751-0.1255-1.0527,0.1074l-0.8657,0.6709c-0.4365,0.3384-0.5161,0.9663-0.1777,1.4028
			c0.1675,0.2163,0.4053,0.3447,0.6563,0.3784v4.2896c0,0.5522,0.4478,1,1,1s1-0.4478,1-1v-5.9512
			C19.2515,32.7939,19.0342,32.4458,18.6914,32.2778z"/>
		<path d="M40.2148,32.1719c-1.5664,0-2.7935,1.7471-2.7935,3.9775s1.2271,3.9775,2.7935,3.9775c1.5659,0,2.793-1.7471,2.793-3.9775
			S41.7808,32.1719,40.2148,32.1719z M40.2148,38.127c-0.2041,0-0.7935-0.6802-0.7935-1.9775s0.5894-1.9775,0.7935-1.9775
			c0.2036,0,0.793,0.6802,0.793,1.9775S40.4185,38.127,40.2148,38.127z"/>
		<path d="M47.9756,32.2778c-0.3423-0.1685-0.751-0.1265-1.0527,0.1074l-0.8662,0.6709c-0.4365,0.3379-0.5166,0.9663-0.1782,1.4028
			c0.1675,0.2163,0.4058,0.3447,0.6567,0.3789v4.2891c0,0.5522,0.4478,1,1,1s1-0.4478,1-1v-5.9512
			C48.5352,32.7944,48.3179,32.4458,47.9756,32.2778z"/>
		<path d="M60.249,44.3612V15.1133c0-2.7178-2.2109-4.9287-4.9287-4.9287H8.6768c-2.7178,0-4.9287,2.2109-4.9287,4.9287v29.2482
			C2.2027,44.5594,1,45.8685,1,47.4668v3.2031c0,1.7344,1.4111,3.1455,3.1455,3.1455h55.709c1.7344,0,3.1455-1.4111,3.1455-3.1455
			v-3.2031C63,45.8675,61.7958,44.5579,60.249,44.3612z M8.6768,12.1846h46.6436c1.6147,0,2.9287,1.314,2.9287,2.9287v29.208h-2.418
			V15.999c0-0.5522-0.4478-1-1-1H9.166c-0.5522,0-1,0.4478-1,1v28.3223H5.748v-29.208C5.748,13.4985,7.062,12.1846,8.6768,12.1846z
			 M10.166,44.3213V16.999h43.665v27.3223H10.166z M39.7298,46.3213c-0.0938,0.8474-0.8055,1.5107-1.6776,1.5107H25.9443
			c-0.872,0-1.5837-0.6634-1.6775-1.5107H39.7298z M61,50.6699c0,0.6318-0.5137,1.1455-1.1455,1.1455H4.1455
			C3.5137,51.8154,3,51.3018,3,50.6699v-3.2031c0-0.6318,0.5137-1.1455,1.1455-1.1455h18.1213
			c0.099,1.9504,1.7029,3.5107,3.6775,3.5107h12.1079c1.9745,0,3.5785-1.5603,3.6775-3.5107h18.1248
			c0.6318,0,1.1455,0.5137,1.1455,1.1455V50.6699z"/>
		<path d="M49.167,47.9536c-0.4761,0.2798-0.6353,0.8926-0.355,1.3687l0.0098,0.0166c0.1851,0.3149,0.5132,0.4873,0.8521,0.4873
			c0.1738,0,0.3506-0.0454,0.5117-0.1406c0.4761-0.2798,0.6304-0.9009,0.3501-1.377C50.2563,47.833,49.6431,47.6743,49.167,47.9536z
			"/>
		<path d="M52.791,47.9536c-0.4761,0.2798-0.6353,0.8926-0.355,1.3687l0.0098,0.0166c0.1851,0.3149,0.5132,0.4873,0.8521,0.4873
			c0.1738,0,0.3506-0.0454,0.5117-0.1406c0.4761-0.2798,0.6304-0.9009,0.3501-1.377C53.8804,47.833,53.2681,47.6743,52.791,47.9536z
			"/>
		<path d="M56.3745,47.9761c-0.4634,0.2998-0.5962,0.9189-0.2959,1.3828l0.0107,0.0166c0.1899,0.2935,0.5054,0.4507,0.8291,0.4507
			c0.1875,0,0.3779-0.0527,0.5483-0.1631c0.4634-0.2998,0.5908-0.9272,0.2905-1.3911
			C57.4575,47.8091,56.8384,47.6758,56.3745,47.9761z"/>
	</g>
</g>
<g id="database_sql">
</g>
</svg>
